<svg xmlns="http://www.w3.org/2000/svg" width="64" height="64" fill="none"><g clip-path="url(#a)"><path fill="#3B82F6" d="M19.279 8.557A51.45 51.45 0 0 0 13.667 32c0 8.44 2.023 16.407 5.612 23.443C10.972 50.925 5.333 42.12 5.333 32s5.639-18.926 13.946-23.443"/><path fill="#2563EB" d="M31.27 7.998c1.205-1.709 3.26-2.63 5.32-2.272C49.13 7.903 58.668 18.838 58.668 32S49.13 56.097 36.59 58.273c-2.06.358-4.116-.562-5.322-2.271A41.5 41.5 0 0 1 23.666 32a41.5 41.5 0 0 1 7.603-24.002"/></g><defs><clipPath id="a"><path fill="#fff" d="M58.667 0H5.334v64h53.333z"/></clipPath></defs></svg>