<svg xmlns="http://www.w3.org/2000/svg" width="345.6" height="345.6" fill-rule="evenodd" clip-rule="evenodd" image-rendering="optimizeQuality" shape-rendering="geometricPrecision" text-rendering="geometricPrecision" viewBox="0 0 9144 9144"><defs><style>.fil0{fill:#011627}</style></defs><path d="M8882 7755h16.93v16.94H8882z" class="fil0"/><path d="M8882 7755h-9v17h9zm25 0h-9v17h9zm-25 17v9h16v-9zm0-25v8h16v-8z" style="fill:#011627;fill-opacity:.501961"/><path d="M8882 7696h16.93v16.94H8882zm-17 9h16.93v16.94H8865zm-17 8h16.93v16.94H8848z" class="fil0"/><path d="M8898 7705h16.93v16.94H8898zm17 8h16.93v16.94H8915zm-33-68h16.93v16.94H8882zm-17 9h16.93v16.94H8865zm-17 8h16.93v16.94H8848z" class="fil0"/><path d="M8898 7654h16.93v16.94H8898zm17 8h16.93v16.94H8915zm17 9h16.93v16.94H8932zm-101 0h16.93v16.94H8831z" class="fil0"/><path d="M0 0h9144v9144H0z" style="fill:#f0f0f0"/><path d="M5304 6777H2455c-48 0-88-39-88-88 0-563 54-901 312-1159 243-244 660-399 1383-595v-158c-241-125-422-425-506-772-52-214-68-448-38-669 30-225 108-438 242-608 173-218 438-361 812-361s639 143 812 361c134 170 212 383 242 608 30 221 14 455-38 669-84 347-265 647-506 772v158c723 196 1140 351 1383 595 258 258 312 596 312 1159 0 49-40 88-88 88zm-2760-176h4056c-5-462-57-745-260-947-222-223-634-370-1364-566-40-8-70-43-70-86v-281c0-35 21-69 56-82 212-83 377-354 455-675 47-194 62-405 35-605-26-195-92-378-206-521-141-178-360-295-674-295s-533 117-674 295c-114 143-180 326-206 521-27 200-12 411 35 605 77 319 241 588 451 673 35 12 60 45 60 84v281c0 39-26 75-65 85-733 197-1146 344-1369 567-203 202-255 485-260 947" style="fill:#011627;fill-rule:nonzero"/></svg>